<?xml version="1.0" standalone="no"?>
<!DOCTYPE svg PUBLIC "-//W3C//DTD SVG 20010904//EN"
 "http://www.w3.org/TR/2001/REC-SVG-20010904/DTD/svg10.dtd">
<svg version="1.0" xmlns="http://www.w3.org/2000/svg"
 width="1280.000000pt" height="938.000000pt" viewBox="0 0 1280.000000 938.000000"
 preserveAspectRatio="xMidYMid meet">
<metadata>
Created by potrace 1.15, written by Peter Selinger 2001-2017
</metadata>
<g transform="translate(0.000000,938.000000) scale(0.100000,-0.100000)"
fill="#000000" stroke="none">
<path d="M10899 9351 c-34 -35 -35 -49 -9 -126 29 -85 26 -124 -15 -185 -90
-133 -74 -236 91 -610 40 -91 91 -212 114 -269 68 -173 140 -329 212 -463 109
-202 126 -252 203 -610 60 -284 118 -427 211 -528 62 -66 154 -118 259 -145
80 -21 247 -20 333 1 408 99 605 553 446 1030 -72 214 -163 342 -376 527 -158
137 -390 392 -581 639 -80 102 -213 235 -284 283 -46 31 -52 40 -58 80 -10 66
-41 91 -128 105 -85 14 -145 38 -177 71 -12 13 -39 60 -60 105 -58 124 -119
156 -181 95z"/>
<path d="M1585 9286 c15 -26 26 -49 24 -51 -2 -2 -49 5 -104 15 -55 11 -118
19 -140 19 l-40 0 40 -37 c23 -20 54 -47 70 -60 18 -14 23 -21 12 -18 -10 4
-44 9 -75 12 l-57 5 100 -98 c121 -118 146 -150 174 -226 27 -73 27 -136 1
-169 -10 -14 -108 -93 -217 -176 -249 -189 -312 -251 -364 -358 -122 -252 -48
-367 249 -382 97 -5 105 -7 145 -37 114 -87 247 -130 377 -122 114 8 207 41
310 111 l84 58 111 -7 c131 -8 193 5 271 57 65 44 103 100 110 164 5 40 0 68
-26 144 -43 126 -63 163 -118 223 -63 67 -128 109 -317 205 -257 131 -300 174
-292 287 2 33 23 118 46 188 50 153 58 205 41 248 -12 28 -16 31 -48 26 -18
-4 -58 -25 -88 -48 l-53 -41 -33 35 c-33 35 -95 60 -182 74 l-39 6 28 -47z"/>
<path d="M6878 9226 c-59 -16 -98 -42 -98 -64 0 -21 65 -159 104 -220 14 -23
24 -42 21 -42 -2 0 -32 18 -66 40 -80 52 -112 52 -138 3 -35 -67 10 -166 121
-265 65 -57 128 -130 128 -148 0 -4 -80 -10 -177 -13 -190 -6 -270 -20 -351
-61 -97 -50 -167 -139 -214 -275 -20 -58 -23 -85 -23 -226 0 -140 3 -169 23
-235 51 -162 143 -290 248 -343 89 -45 445 -107 614 -107 43 0 90 -4 104 -10
41 -15 50 -70 36 -229 -11 -120 -10 -144 4 -200 23 -91 77 -165 167 -229 41
-29 89 -64 107 -78 42 -33 99 -148 146 -294 35 -111 111 -263 131 -264 31 -2
9 329 -30 452 -37 118 -78 178 -155 228 -128 83 -144 98 -173 156 -40 79 -39
140 3 307 23 92 41 143 58 163 16 18 87 59 199 113 233 113 313 171 363 265 7
14 38 102 67 195 45 140 55 187 60 268 5 88 3 105 -22 183 -92 283 -349 445
-644 406 -48 -7 -112 -20 -142 -31 l-54 -18 0 171 c0 214 -19 312 -70 363 -25
25 -42 33 -70 33 -32 0 -38 -4 -52 -37 -13 -31 -15 -63 -10 -168 l5 -130 -20
85 c-28 124 -59 219 -77 241 -21 25 -66 31 -123 15z"/>
<path d="M9728 9189 c-78 -11 -113 -31 -183 -104 -54 -56 -65 -64 -110 -70
-54 -7 -109 -36 -119 -61 -3 -9 -6 -28 -6 -42 0 -56 -35 -72 -158 -72 -122 0
-157 -12 -217 -75 -48 -50 -55 -53 -145 -74 -109 -25 -167 -58 -239 -137 -98
-108 -115 -191 -59 -294 l32 -58 -22 -68 c-36 -111 -26 -193 33 -270 48 -63
98 -78 260 -79 114 -1 146 -5 174 -19 57 -30 236 -216 252 -261 16 -47 18
-209 5 -495 -8 -189 -10 -199 -47 -312 -68 -204 -53 -250 86 -263 122 -12 275
-2 320 21 68 33 80 61 80 177 0 56 -8 174 -19 262 -43 369 4 529 219 741 124
122 145 133 218 110 114 -35 171 -30 201 16 12 19 13 31 3 65 -11 42 -11 42
36 92 74 79 74 113 -1 194 l-47 49 68 61 c77 70 92 105 103 236 11 136 -29
190 -217 291 -56 30 -111 66 -121 80 -11 16 -24 62 -33 117 -17 118 -37 158
-94 195 -71 45 -154 60 -253 47z m-348 -1287 c0 -29 -52 -112 -70 -112 -5 0
-17 12 -27 27 -15 23 -15 27 -3 31 8 3 31 22 50 43 42 46 50 47 50 11z m540
22 c0 -12 -74 -89 -107 -112 -18 -12 -33 -21 -33 -18 0 4 66 104 82 124 11 12
58 17 58 6z"/>
<path d="M5013 9105 c-39 -17 -49 -45 -29 -84 19 -36 27 -29 -118 -101 l-111
-55 -115 -143 c-238 -293 -292 -332 -635 -458 -127 -46 -212 -71 -294 -84 -63
-11 -136 -27 -163 -36 -59 -19 -118 -72 -118 -105 0 -61 74 -129 215 -198 180
-88 287 -92 740 -26 383 57 588 98 683 137 71 29 159 80 382 221 108 69 138
78 161 51 17 -21 63 -44 88 -44 57 0 124 106 142 222 19 122 -13 215 -113 326
-27 29 -48 59 -48 68 0 26 27 67 70 109 46 44 70 83 70 115 0 30 -42 65 -95
80 -60 17 -90 -1 -100 -62 -9 -50 -24 -84 -55 -116 -30 -31 -61 -23 -120 32
-59 55 -162 113 -256 142 -84 27 -134 30 -181 9z"/>
<path d="M2925 7521 c-127 -23 -325 -73 -635 -162 -514 -148 -589 -155 -1015
-99 -238 31 -364 36 -463 17 -242 -46 -353 -208 -356 -519 l-1 -117 -60 -48
c-170 -137 -245 -316 -221 -528 14 -130 -26 -290 -117 -470 -46 -89 -51 -107
-51 -165 -1 -57 5 -77 46 -162 26 -54 72 -137 103 -184 52 -81 161 -224 170
-224 2 0 3 20 3 45 0 79 14 82 113 23 97 -57 151 -62 217 -19 46 29 54 31 150
31 134 0 194 14 233 53 28 28 30 34 23 71 -4 23 -7 85 -6 138 3 95 2 97 -28
132 -19 21 -71 55 -137 87 -146 73 -176 117 -221 329 -12 52 -33 142 -47 200
-31 128 -32 194 -3 279 12 36 22 67 24 69 1 2 33 -20 70 -49 85 -64 203 -122
309 -150 62 -17 109 -22 210 -22 197 -1 297 33 556 189 227 136 442 297 905
675 202 165 329 262 374 284 38 19 137 53 220 77 174 48 295 102 295 132 0 27
-69 60 -176 86 -113 26 -337 27 -484 1z"/>
<path d="M5220 7140 c-30 -11 -91 -41 -135 -67 -44 -26 -111 -64 -150 -85 -81
-44 -125 -88 -125 -123 0 -30 -28 -49 -117 -82 -85 -31 -155 -78 -254 -170
l-79 -75 -45 50 c-68 75 -119 96 -235 96 -118 -1 -215 -31 -412 -130 -411
-206 -596 -324 -933 -594 -68 -55 -144 -106 -175 -119 -185 -77 -445 -234
-625 -377 -124 -99 -144 -123 -233 -266 -74 -119 -104 -151 -213 -228 -44 -32
-72 -60 -89 -93 -23 -44 -24 -49 -10 -75 24 -43 85 -42 202 3 114 44 224 102
475 252 311 184 379 213 748 309 290 76 351 98 633 233 341 163 499 219 672
236 160 15 237 43 271 98 27 45 37 86 47 205 13 148 15 149 164 129 95 -13
461 -106 491 -124 5 -3 -16 -29 -47 -57 -50 -47 -56 -56 -56 -93 0 -66 51 -97
156 -96 l72 1 -1 -87 c-1 -76 2 -94 26 -144 33 -66 68 -96 200 -168 60 -32
136 -86 195 -137 132 -116 294 -218 374 -237 43 -11 45 16 10 121 -18 51 -32
98 -32 104 0 7 18 -4 41 -24 82 -70 152 -86 170 -39 13 36 7 57 -56 195 -69
149 -72 160 -44 173 39 17 46 40 28 90 -9 25 -15 45 -13 45 2 0 27 -15 56 -34
29 -18 99 -58 156 -89 112 -61 124 -60 102 9 -15 43 -111 146 -214 229 -41 33
-75 62 -75 65 -1 3 16 14 37 25 44 24 53 59 25 101 l-18 28 25 -7 c14 -4 67
-10 117 -14 82 -5 93 -4 99 11 9 23 -12 43 -127 120 -80 53 -94 66 -91 87 10
76 8 82 -28 105 -68 44 -81 59 -94 111 -22 83 -51 118 -154 192 -120 85 -131
97 -176 193 -36 76 -38 78 -104 109 -37 17 -109 52 -160 77 -113 56 -184 65
-272 32z m-185 -374 c26 -26 41 -67 32 -90 -4 -9 -29 -17 -74 -21 -94 -9 -195
-30 -280 -58 -40 -13 -70 -21 -67 -16 8 14 198 142 259 176 72 39 98 41 130 9z
m26 -227 c11 -5 36 -36 56 -67 19 -31 47 -67 62 -79 33 -29 21 -54 -34 -68
-31 -8 -69 -3 -199 24 -228 48 -296 60 -338 60 -21 1 -38 4 -38 9 0 4 64 25
143 46 78 21 174 49 212 62 79 26 107 29 136 13z"/>
<path d="M10285 6233 c-31 -4 -236 -55 -390 -97 -49 -13 -189 -43 -310 -66
-812 -153 -1538 -331 -1913 -469 -277 -103 -468 -245 -549 -409 -36 -71 -38
-82 -38 -166 0 -109 16 -148 88 -218 98 -96 301 -164 522 -174 268 -13 839 67
1880 262 827 155 1221 248 1585 373 209 71 577 208 669 249 247 109 431 293
431 433 0 88 -76 158 -217 199 -74 21 -103 23 -518 30 -422 8 -503 12 -858 45
-147 14 -313 17 -382 8z"/>
<path d="M5629 4899 c-29 -11 -49 -46 -49 -88 0 -18 -7 -31 -17 -36 -10 -4
-56 -20 -103 -37 -242 -86 -492 -258 -620 -426 -64 -84 -125 -207 -144 -292
-20 -84 -20 -226 0 -304 23 -92 123 -291 192 -382 285 -378 784 -500 1269
-313 230 90 405 235 493 409 162 322 67 767 -226 1056 -112 111 -254 194 -376
219 -81 18 -85 20 -90 55 -3 23 -8 26 -76 33 -67 8 -75 12 -100 44 -15 20 -35
44 -44 54 -19 21 -66 24 -109 8z"/>
<path d="M10867 4840 c-31 -25 -136 -179 -178 -261 -81 -161 -135 -350 -146
-511 -9 -141 2 -161 108 -191 30 -9 63 -25 72 -35 10 -10 41 -63 70 -118 63
-116 95 -144 207 -175 41 -11 85 -27 97 -35 l22 -14 -19 -55 -19 -55 25 -61
c53 -130 33 -173 -101 -212 -118 -35 -200 -73 -292 -133 -132 -88 -207 -194
-219 -311 -5 -49 -1 -75 30 -173 49 -151 56 -231 27 -287 -25 -50 -66 -76
-210 -133 -156 -62 -218 -96 -272 -150 -78 -78 -69 -84 64 -45 88 25 216 78
447 186 l135 63 146 6 c143 5 147 6 220 42 188 94 344 340 357 565 l5 92 -46
77 c-26 42 -44 81 -41 86 3 4 23 8 46 8 42 0 38 -4 146 115 24 27 66 58 100
73 53 25 67 27 222 30 165 3 165 3 201 32 48 38 75 44 145 31 68 -13 78 -6 89
59 4 21 15 46 24 54 10 9 65 29 122 45 129 35 176 55 212 88 73 71 -4 144
-267 255 -224 95 -293 118 -392 133 -118 18 -134 26 -134 70 0 26 -7 38 -31
56 -27 19 -30 26 -24 55 5 29 1 39 -32 75 -21 22 -49 64 -63 93 -30 62 -79 92
-163 102 -62 7 -117 41 -117 71 0 35 -332 348 -412 389 -60 30 -125 32 -161 4z
m657 -1507 c-36 -49 -96 -117 -106 -121 -13 -6 20 89 39 110 17 19 67 47 87
48 4 0 -4 -17 -20 -37z"/>
<path d="M3405 4765 c-27 -8 -53 -14 -57 -15 -13 0 -28 -74 -28 -136 0 -129
-49 -324 -82 -324 -6 0 -49 16 -94 35 -163 70 -321 93 -402 59 -57 -24 -91
-62 -132 -150 -38 -82 -57 -102 -141 -154 -56 -34 -91 -99 -115 -210 -23 -107
-15 -408 14 -540 36 -165 90 -304 153 -397 18 -26 71 -91 117 -143 62 -71 95
-119 129 -189 57 -119 139 -206 238 -252 58 -28 74 -31 125 -26 32 3 84 17
116 31 31 14 69 26 85 26 16 0 73 -18 128 -40 57 -23 116 -40 138 -40 97 0
241 68 327 154 94 94 118 152 226 540 103 372 120 463 127 691 8 285 -9 365
-102 464 -67 71 -116 92 -232 96 -81 3 -98 7 -106 22 -6 10 -31 39 -57 64 -84
83 -201 101 -277 43 -18 -14 -33 -24 -33 -22 0 2 6 35 14 73 22 107 37 264 30
312 -6 38 -9 43 -33 42 -14 0 -48 -7 -76 -14z"/>
<path d="M8515 4441 c-63 -16 -107 -43 -233 -147 -42 -35 -69 -46 -169 -73
-322 -87 -407 -125 -508 -226 -72 -72 -109 -134 -265 -440 -31 -60 -73 -137
-94 -170 -49 -80 -77 -173 -78 -260 0 -94 15 -143 62 -206 28 -37 40 -64 40
-86 0 -18 11 -66 25 -107 15 -45 25 -97 25 -133 0 -91 15 -129 63 -164 50 -36
62 -57 72 -124 9 -69 25 -89 97 -124 67 -33 143 -51 213 -51 34 0 48 -6 66
-27 13 -14 49 -53 80 -86 l56 -60 84 -7 c46 -4 111 -16 144 -26 45 -14 91 -19
180 -19 105 0 127 3 172 24 50 22 57 23 130 12 151 -22 316 16 465 106 121 73
193 138 383 345 200 217 203 222 161 314 -28 61 -36 167 -16 220 7 17 7 44 1
78 -14 74 -6 97 61 173 83 95 92 115 84 184 -10 104 -86 258 -137 279 -38 16
-41 30 -17 99 26 77 16 124 -39 173 -81 72 -110 108 -163 203 -78 139 -112
170 -250 228 -145 61 -201 77 -261 77 -41 0 -54 -5 -94 -40 -25 -22 -49 -40
-52 -40 -3 0 -27 20 -53 44 -48 45 -50 46 -175 60 -16 2 -43 1 -60 -3z"/>
<path d="M1385 4341 c-53 -13 -73 -30 -90 -76 l-18 -45 -74 0 c-75 0 -102 -8
-138 -41 -20 -18 -22 -18 -63 2 -34 17 -62 21 -140 22 -120 1 -167 -17 -196
-76 -18 -38 -18 -41 -1 -105 10 -37 51 -132 92 -212 40 -80 63 -134 52 -120
-24 28 -104 186 -138 272 -13 31 -32 65 -43 74 -19 18 -21 16 -109 -73 l-90
-91 -25 34 c-14 18 -34 36 -45 39 -35 12 -106 -34 -187 -120 -119 -125 -144
-193 -103 -273 21 -41 156 -175 356 -353 234 -209 328 -322 535 -642 63 -98
173 -266 244 -374 111 -169 131 -208 153 -282 14 -47 60 -203 103 -346 101
-335 124 -424 150 -569 45 -253 102 -396 199 -500 74 -80 79 -113 30 -190 -21
-34 -27 -52 -20 -59 10 -10 18 -7 92 31 4 1 12 -12 20 -29 13 -32 13 -32 27
-11 l14 22 25 -20 c42 -33 90 -26 143 21 35 30 42 41 31 48 -27 17 -1 42 84
81 47 21 85 43 85 48 0 17 -38 43 -91 63 -84 32 -89 40 -83 123 4 53 1 88 -14
141 -49 174 -94 313 -155 476 -106 285 -221 680 -271 934 -35 175 -47 317 -61
740 -8 242 -19 481 -25 530 -5 52 -7 188 -3 320 6 247 -2 348 -38 452 -37 110
-115 158 -214 134z"/>
<path d="M6220 2772 c-35 -36 -36 -51 -9 -145 18 -64 9 -76 -82 -107 -66 -22
-78 -30 -113 -77 -47 -64 -72 -71 -192 -54 -70 10 -89 9 -119 -3 -23 -10 -35
-22 -35 -35 0 -22 51 -68 86 -77 13 -3 24 -10 24 -14 0 -33 -1398 -551 -1825
-676 -66 -20 -300 -71 -520 -115 -220 -43 -465 -97 -545 -119 -80 -22 -186
-46 -237 -54 -226 -36 -253 -58 -199 -165 34 -67 68 -104 140 -155 258 -183
711 -273 1113 -221 311 41 733 167 1263 377 212 84 757 359 849 429 128 96
209 209 247 346 l16 58 48 -48 c39 -39 54 -48 77 -45 43 5 63 54 63 154 0 79
-1 82 -45 150 -64 99 -62 116 37 261 63 92 79 169 54 254 -8 30 -26 67 -39 84
l-24 29 -33 -32z"/>
<path d="M11768 1830 c-87 -14 -262 -87 -330 -138 -122 -92 -206 -257 -196
-386 8 -95 39 -155 124 -235 166 -159 465 -250 693 -211 59 10 80 19 110 45
46 42 126 177 160 269 23 63 26 86 26 206 0 223 -43 319 -172 388 -32 17 -86
37 -120 46 -77 20 -220 28 -295 16z"/>
<path d="M7980 1514 c-204 -25 -380 -91 -505 -188 -33 -26 -86 -64 -117 -86
-149 -104 -297 -260 -447 -468 -117 -164 -152 -230 -158 -302 -12 -129 74
-241 227 -295 191 -69 1086 -122 1428 -84 281 30 446 117 550 292 107 178 122
430 39 637 -100 247 -311 416 -592 475 -78 16 -349 28 -425 19z"/>
<path d="M10799 1226 c-2 -2 -35 -6 -74 -9 -100 -8 -219 -49 -293 -100 -120
-83 -173 -178 -180 -317 -5 -105 9 -176 52 -266 86 -180 245 -297 529 -390
131 -43 207 -48 280 -21 52 21 71 44 62 80 -5 18 5 37 43 83 202 242 218 569
36 758 -77 81 -178 130 -344 167 -88 19 -104 21 -111 15z"/>
<path d="M4063 596 c-30 -23 -58 -101 -57 -166 1 -127 141 -290 249 -290 60 0
103 33 142 109 67 129 28 273 -90 330 -60 29 -213 40 -244 17z"/>
<path d="M4795 399 c-85 -7 -119 -22 -145 -64 -25 -41 -25 -98 0 -152 40 -89
168 -183 250 -183 50 0 133 42 161 81 31 44 39 141 14 190 -52 103 -134 141
-280 128z"/>
</g>
</svg>
